<svg width="43" height="13" viewBox="0 0 43 13" fill="none" xmlns="http://www.w3.org/2000/svg">
<path d="M8.1087 11.689C7.69915 11.4218 7.4085 11.0145 7.23675 10.4545C7.065 9.89449 6.98573 9.15631 6.98573 8.22722V6.96722C6.98573 6.03812 7.07821 5.27449 7.27638 4.71449C7.47455 4.14176 7.77842 3.73449 8.20118 3.47994C8.62394 3.2254 9.16561 3.0854 9.83939 3.0854C10.5 3.0854 11.0416 3.21267 11.438 3.47994C11.8343 3.74722 12.1382 4.15449 12.3231 4.71449C12.5081 5.27449 12.6006 6.0254 12.6006 6.95449V8.21449C12.6006 9.14358 12.5081 9.88176 12.3231 10.4418C12.1382 11.0018 11.8475 11.409 11.438 11.6763C11.0284 11.9309 10.4735 12.0709 9.78655 12.0709C9.07313 12.0836 8.51825 11.9436 8.1087 11.689ZM10.3943 10.3272C10.5132 10.0472 10.566 9.57631 10.566 8.93994V6.22903C10.566 5.6054 10.5132 5.14721 10.3943 4.86722C10.2754 4.57449 10.0772 4.43449 9.79976 4.43449C9.52232 4.43449 9.33736 4.57449 9.21846 4.86722C9.09955 5.15994 9.04671 5.6054 9.04671 6.22903V8.93994C9.04671 9.57631 9.09955 10.0472 9.20524 10.3272C9.31094 10.6072 9.50911 10.7472 9.79976 10.7472C10.0772 10.7472 10.2754 10.6072 10.3943 10.3272ZM39.3536 8.25267V8.69812L39.4065 9.95812C39.4461 10.2381 39.5122 10.4418 39.6178 10.569C39.7235 10.6963 39.8953 10.7599 40.1199 10.7599C40.4237 10.7599 40.6351 10.6454 40.7408 10.4163C40.8597 10.1872 40.9126 9.8054 40.9258 9.28358L42.6829 9.3854C42.6961 9.46176 42.6961 9.56358 42.6961 9.69085C42.6961 10.4927 42.4715 11.0909 42.0091 11.4854C41.5467 11.8799 40.9126 12.0836 40.0802 12.0836C39.0762 12.0836 38.376 11.7781 37.9796 11.1799C37.5833 10.5818 37.3719 9.63994 37.3719 8.37994V6.83994C37.4168 4.67631 37.8118 3.09176 40.1331 3.0854C40.8333 3.0854 41.3617 3.21267 41.7317 3.45449C42.1016 3.69631 42.3658 4.07812 42.5243 4.59994C42.6829 5.12176 42.7489 5.83449 42.7489 6.75085V8.23994H39.3536V8.25267ZM39.6178 4.58722C39.5122 4.71449 39.4461 4.9054 39.4065 5.1854C39.3668 5.4654 39.3536 6.45812 39.3536 6.45812V7.08176H40.8333V6.45812C40.8333 7.08176 40.8201 5.47812 40.7804 5.1854C40.7408 4.89267 40.6748 4.68903 40.5691 4.57449C40.4634 4.45994 40.3048 4.39631 40.0935 4.39631C39.8689 4.40903 39.7103 4.47267 39.6178 4.58722ZM3.16764 8.08722L0.855652 0.0435791H2.87699C2.87699 0.0435791 3.82161 4.07812 4.14529 5.97449H4.19813C4.56541 3.96103 5.49285 0.0435791 5.49285 0.0435791H7.51419L5.17577 8.07449V11.9309H3.18086V8.08722H3.16764Z" fill="white"/>
</svg>
